<?xml version="1.0" encoding="UTF-8"?> <svg xmlns="http://www.w3.org/2000/svg" fill="none" viewBox="0 0 82 34"><path fill="#000" d="M17.352 20.66c-2.8964-3.7073-2.0139-9.5362 1.7072-12.33614.8063-.61634 3.4695-1.84254 3.4604.01483-.8229 3.78241-.045 7.67971 2.5658 10.59931 1.9506 2.3792 6.3017 3.7555 8.7427 1.4773 1.5703-1.5098 1.9386-3.8917 3.1554-5.6592 4.0086-7.30902 10.4793-2.4302 6.9271-10.4686-.2608-.58947-.5749-1.15576-.9542-1.67572-.8954-1.22805.7751-1.37357 1.8477-2.146547 2.0094-1.584883 2.8836 1.248447 3.172 2.869477.394 1.99362.4371 4.03173.5189 6.04111.0266.65248.2002 1.28918.5032 1.86568 1.6723 3.1837-.0321 6.9949-.8292 10.2582-.0055.5135-.2544 1.2272-.3141 1.8463-.0505.532.2608 1.0371.753 1.2327 1.2646.5023 2.644.5496 3.9967.5505 2.3656.2234 4.3015-1.6136 6.6965-1.6572 1.7219-.1983 3.4282-.1167 5.1116.3096.2139.0538.4325.0844.6529.0825 4.6138-.0389 8.4791-3.3783 12.4546-5.3979 11.1138-6.6426-1.4693 8.7456-5.4522 9.3064 2.0672 1.1261 4.0297 2.5664 6.3944 2.9306.4078.1492.956.203 1.508.2734 1.6704.2151 1.7283 2.635.0707 2.9325-4.0371.7239-11.9284-3.1419-15.7708-2.8657-.4243.0305-.8485.0296-1.2737.0129-7.0199-.2817-17.1786 3.9511-22.5252-1.0806-1.3417-1.2633-3.4034-1.3282-4.7754-.0974-6.7168 6.0245-13.0919-2.5599-20.4947-.1483-4.6101 1.9557-10.77406 5.2598-15.1058973 1.0603-.4169287-.7813.6070263-.8971 1.1497673-.9222 6.46332-.8184 9.95943-7.4508 16.10683-9.2081Z"></path><path fill="#FFF600" d="M51.9963 25.9707c-1.1516-.1159-2.4933-.1363-3.6385-.6192-.1607-.0676-.3288.0705-.2948.2419.09.4533.8513 1.5339 1.2379 2.0539.1259.1696.3554.2178.5391.1168.7696-.4227 1.5144-.912 2.2509-1.3977.169-.1112.1056-.3754-.0946-.3957Z"></path><path fill="#FFF600" d="M78.5343 31.7806c-8.918-2.7212-14.3556-11.4918-24.5813-5.5971-2.6669 1.4226-5.4917 4.3922-8.7381 3.1697-.2186-.0936-.1956-.2799-.0432-.3698.0349-.0204.0763-.0278.1157-.025.9937.0723 1.9203-.0908 2.8028-.3976.2838-.0983.4096-.4375.2563-.6979-.0019-.0028-.0028-.0056-.0037-.0065-3.3777-4.3154.686-9.2202.4601-13.9266-.7145-7.52129-5.9022-.4616-7.0483 2.8861-1.0286 2.6443-1.3169 5.5434-2.464 8.146l-.0091.025c-.6025 1.9528.9082 4.0271 2.6163 4.9039 8.2394 4.4757 17.0886-2.6591 25.7027-.836l.0285.0037c3.4438.1779 7.2374 3.4432 10.6675 3.8612.7034.0853.9146-.9333.2369-1.14l.0009.0009Z"></path><path fill="#FFF600" d="M1.8438 30.3551c6.93627-1.4468 12.9974-6.3591 20.1917-6.5259.1689-.0037.1882-.2484.0229-.2818-4.2492-.8499-8.9272 1.9427-12.95416 3.5313-.14601.0575-.25989-.1344-.14234-.2382 6.0427-5.3247 11.1046-8.4972 17.9261-1.7323 1.35 1.2985 2.8855 2.3477 4.6689 2.9529.4619.2605 2.958.5089 2.4409-.253-.1166-.1715-.3094-.2734-.5142-.2929-4.476-.43-.6961-1.0677.6566-4.9891 2.2876-5.042 4.9333-12.0396 11.123-12.4511.3058-.0204.4527.3744.2039.5552-4.6166 3.3375-5.0133 9.4398-6.9574 14.4345-1.4455 3.711-4.9719 5.9002-8.5976 5.5703-1.4124-.1289-2.7523-.6748-3.9121-1.4987-8.3377-5.9225-15.5513 2.9047-24.1516 1.4588-.13133-.0222-.135-.2113-.00368-.2391l-.00092-.0009Z"></path><path fill="#FFF600" d="M29.7102 26.1573c-.7668-.4699-1.5089-.975-2.1572-1.6099-2.115-2.5228-5.7029-2.9288-7.7564-5.383-2.204-3.4979-1.7733-8.716 1.9258-11.0062.3949 1.29664-.5014 2.4496-.3728 3.7694.1515 5.3015 4.2923 10.8783 9.8309 10.5873.1111-.0056.1423.1501.0376.1881-4.8057 1.7082-1.5685 1.9251 1.069.4013.269-.1547.5712.1474.4206.4199-.4684.8471-.9983 1.6386-1.5934 2.3912-.3379.4273-.9403.5255-1.4041.2419Zm51.1426-7.9751c-2.0874 3.4052-6.7701 5.8066-10.0715 7.8391-1.1608.9297-2.3372-.4004-3.4548-1.1743-.2186-.151-.1562-.4884.101-.5496 4.7497-1.1316 8.6894-4.7296 13.0561-6.5508.2663-.1113.5198.1881.3682.4356h.001ZM1.90676 31.2793c7.28339 1.4885 14.03504-5.7955 21.23124-2.8704 1.4262.8119 3.0168 1.7119 4.4879 2.3922.1249.0574.0607.2465-.0734.2169-2.1783-.4885-4.2547-1.3449-6.3779-2.04-6.5717-2.47-12.93401 5.5202-19.35233 2.5599-.14694-.0677-.07531-.291.08265-.2586h.00184ZM46.5909 9.26859l-.2351-.05561c-.2259-.05375-.3912-.24931-.4087-.4838-.1506-2.09187-.8026-4.02525-1.8211-5.86223-.1662-.29937-.0688-.67659.2177-.86103.3187-.20576.6566-.47176.9734-.63396.3683-.18814.8238-.0278.9992.34942.9918 2.12523 1.1314 4.36724 1.2636 6.70658.0303.54405-.4646.96483-.9899.84063h.0009Z"></path><path fill="#FFF600" d="M18.9505 20.3918c-1.552-.0908-2.1031-2.4237-2.4052-3.826-.3627-2.8982.7182-5.8743 3.0498-7.65564-2.6476 2.98074-2.5043 7.70294-.3324 10.92734.1644.2447-.0193.571-.3122.5543Zm41.5134 9.4841c4.0994-.7572 8.1613-.2465 12.0395 1.546.1019.0472.045.2011-.0625.1696-3.8203-1.1317-7.9712-1.5349-11.9467-1.4181-.1837.0056-.2103-.2641-.0303-.2975Zm16.0599-6.1674c-1.484 1.4329-3.7459 3.5007-5.3383 3.4052-.2314-.0139-.2838-.3364-.0698-.4263 1.9194-.8017 3.599-1.9658 5.2777-3.1401.1047-.0732.2232.0723.1314.1612h-.001Z"></path></svg> 