<svg xmlns="http://www.w3.org/2000/svg" version="1.1" xmlns:xlink="http://www.w3.org/1999/xlink" xmlns:svgjs="http://svgjs.dev/svgjs" width="68" height="68"><svg xmlns="http://www.w3.org/2000/svg" fill="none" viewBox="0 0 68 68"><circle cx="34" cy="34" r="34" fill="#FFF600"></circle><path fill="#000" d="M28.1937 42.2423c-.086.6942-.4487 1.9078 1.4817 2.2902 1.9303.381 1.5945-.1341 1.6171-.4262.0226-.2921-.3344-1.6834-1.5818-2.2902-1.2474-.6067-1.4718.0621-1.517.4262Zm4.9383 1.3473c.0819.6491.786.8763 1.572.381.7859-.4939 1.3024-.6505 1.0554-1.7286-.2469-1.078-.4501-1.5719-.9101-1.5268-.46.0452-.9102.8086-1.2686 1.4591-.3584.6505-.4924 1.0555-.4487 1.4139v.0014ZM31.5167 32.97c1.4365-.0438 4.8273-.4262 6.0846-1.0781 1.2573-.6505 1.8866-.92 2.1561-.6505.2695.2695-.2921.8974-.8763 1.2121-.5841.3147-.8692.6491-.9299 1.2968-.0762.8001-.4952 1.0555-1.4632 1.143-1.0499.0945-1.5254-1.1444-3.7394-.9412-2.1703.1989-2.444.1129-2.8702.1129-1.4364 0-1.7949 1.3052-3.2779 1.3066-1.6397 0-.8975-1.5042-2.111-1.6397-1.2121-.134-1.459-.7182-1.3927-.9651.0677-.247.3598-.2244 1.5493-.0452 1.1896.1792 3.9299.3373 6.8706.2469v.0015ZM28.003 62.412c.1806-.3753.4092-.7055.5009-1.0696.1665-.6632.3189-1.3433.3513-2.0234.024-.5066-.1368-1.0245-.2412-1.5325-.2089-1.0174-.5588-1.9741-1.1444-2.849-.199-.2977-.2484-.697-.3669-1.0498-.0565-.1693-.0748-.3669-.1764-.5023-.5362-.7112-1.0696-1.4323-1.936-1.7907-.7041-.2907-1.2037-1.3815-.9652-2.1025.1665-.5038.5997-.858 1.1331-.8791 1.4619-.0565 2.7841.2878 3.8607 1.3532.2639.261.5715.4798.8693.7055.7591.5758 1.0964 1.445 1.5211 2.2394.2342.4375.4897.5334.9257.4107 1.0795-.3034 2.0446-.7747 2.8885-1.5522 1.9176-1.7695 3.3471-3.8833 4.5888-6.1509.2385-.4347.5757-.865.9736-1.1501.906-.6477 1.572-.3711 1.8584.6957.2343.8734.0325 1.682-.3132 2.4835-.1877.436-.3203.8974-.4882 1.3758.213.0705.3951.1185.5672.1905.7916.3344 1.0555.9609.9666 1.7765-.0212.1934-.0593.3895-.0409.58.0099.103.1058.2723.1834.285.9285.151 1.1712.8213 1.2615 1.6171.0071.0565.0283.1115.0438.1722.6688.1115 1.2248.3923 1.6114.9595.3514.5165.3726 1.0527.127 1.6171-.2314.5348-.4812 1.0654-.6674 1.6157-.3528 1.0414-.9892 1.9191-1.6538 2.7559-.3288.4134-.8537.7069-1.3434.944-.6166.2977-1.2982.4543-1.9317.7196-1.0852.453-2.1689.9144-3.2215 1.4351-.3711.1834-.834.381-.7267 1.0216.031.1821-.2738.3175-.4516.5503-.2032.2653-.2215.2498-.3471.5518-.1595.3852-.436.642-.8735.69-.4755.0522-.8551.0833-1.2939.1157-.072.0057-.5715.0494-.6943.0536-.333.0113-.5799.0014-1.3843-.0903-1.1839-.1354-1.3758-.2413-2.5399-.4755-.3006-.0607-1.9812-.374-2.2577-.5122-.0777-.0395-.0424-.199-.0424-.4389 0-.4882.0522-.2935 0-.7704-.055-.4953.0311-1.0132.1059-1.5127.0677-.4516.412-.5334.7619-.4643l.0015.0014Zm13.4716-14.8544c-.1157-.048-.2286-.0663-.2992-.1313-.103-.0931-.2455-.2243-.2385-.3316.0057-.1044.1623-.2455.2823-.2892.6787-.2498.9299-.6745.7267-1.3674-.0466-.158-.2173-.3584-.3613-.3894-.1453-.0311-.3725.0889-.4882.2116-.1693.1821-.2709.4262-.4036.6435-1.0879 1.7822-1.9952 3.666-3.3386 5.3057-1.349 1.6467-3.0465 2.5893-5.0333 3.1537-.2131.0607-.4234.2371-.5687.4135-.2413.2935-.6181.3217-.762-.0113-.2116-.4882-.3824-.9934-.5771-1.4887-.0593-.1496-.12-.309-.2173-.4332-.3401-.436-.7154-.8452-1.0428-1.2897-.9172-1.2446-2.1971-1.7992-3.6829-1.9643-.4869-.0536-.5885.1341-.3994.5842.1863.4445.5955.5772.9765.731 1.0639.4304 1.7286 1.2869 2.1237 2.269.5842 1.4506.9948 2.9717 1.4633 4.4675.4092 1.3066.2624 2.6006-.1454 3.8805-.0324.103-.0465.2116-.0988.4586.9328-.6999 1.7554-1.318 2.5781-1.9346.261-.1962.5404-.3726.8537-.1327.3302.2526.1806.5475.0381.8438-.1101.2286-.1792.4756-.2681.7141.0451.0296.0917.0592.1369.0889.3062-.2936.618-.5828.9186-.8834.4769-.4755.9271-.9793 1.4294-1.4252.1369-.1213.4628-.1637.6294-.0861.2723.1256.2441.4177.1001.6647-.1058.1806-.2568.3386-.34.5277-.1228.2794-.3105.5715-.0861.9327.2187-.1594.3838-.3231.5814-.4106.1467-.0649.3767-.0974.4952-.0226.1172.072.1891.2964.1905.453 0 .1863-.1326.3697-.1396.5588-.0099.2116.0324.4346.0959.6378.0466.1482.1665.2723.2695.4304.1524-.103.2935-.2145.4502-.2992.5108-.2766 1.0061-.6039 1.5479-.8015.7564-.2751 1.5593-.4191 2.3227-.6759.9228-.3104 1.8668-.6364 2.4044-1.5409.6421-1.0795 1.2616-2.1716 1.8655-3.2723.3824-.6971.1566-1.246-.5941-1.5564-.3226.4337-.6834.4953-1.0823.1848-.0113-.0084-.0324-.0155-.0353-.0254-.0465-.1594-.1806-.3937-.1199-.4684.3612-.4403.1383-.8537-.0113-1.2672-.055-.1524-.1862-.3894-.2836-.3909-.1792 0-.4036.103-.5306.2385-.2455.2597-.4191.5828-.6533.8551-.2018.2343-.4628.2879-.7027.0424-.2145-.2188-.1778-.635.0381-.8185.8283-.7055 1.0555-1.6312.9539-2.6697-.0085-.0791-.0664-.1665-.1228-.2272-.3316-.3542-.714-.3401-1.0315.1467-.429.6604-.7874 1.3674-1.143 2.0729-.2427.4812-.5602.8382-1.0484.9285-.6519-.6166-.1157-1.0682.1848-1.5564.024-.0381.048-.0762.0692-.1157.6505-1.2432 1.3038-2.4864 1.9515-3.7309.0677-.1298.1101-.2738.1722-.4304v-.0014Z"></path><path fill="#000" d="M29.8529 49.6686c-.2978 0-.223.1595-.1482.2357.1708.1736.3274.3302.4713.4769.2131.2159.5066.3288.81.3133.7577-.0395 1.6495-.1087 2.6853-.2159.745-.0776 1.4252-.1722 2.0418-.2766.285-.0479.539-.2018.7168-.4303.0918-.1186.1863-.2399.2822-.3613.151-.1933-.0155-.4699-.2568-.4275-.9454.1665-2.063.3217-3.3217.4614-1.6001.1778-2.3692.2201-3.2807.2215v.0028Z"></path><path fill="#000" d="M66.1166 33.4016c-.0324-2.2535-.6787-2.3382-1.2177-2.3819-.5391-.0451-6.5079.0833-8.3946.1284-1.8866.0452-2.3805.0452-4.7144 1.3928-2.3353 1.3475-3.7267 2.3804-4.5804 3.4571-.8537 1.0781-1.5268 2.0207-1.9303 1.7963-.4036-.2243.3598-.3598 1.1232-1.706.7634-1.3476 2.0207-2.3805 3.951-3.7718 1.9304-1.3927 1.9304-1.4365 1.4817-3.9962-.4488-2.5597-2.8744-7.634-4.3109-10.5521-1.4365-2.9181-2.4426-3.1834-1.7963-3.5926.3006-.1905.7958-.0762 1.9304.9426.7662.6886 1.0681 1.1246 1.2615.8213.2215-.3486-.4981-1.1811-2.6077-2.7982-2.111-1.6171-3.278-2.5597-4.2657-3.45717-.9878-.89744-.4036-1.6171 1.1232-1.70599 1.5268-.0889 2.111-.09031 1.4816-.44873-.6293-.35982-2.6048-.80855-4.6255-1.25727-2.0207-.44873-6.7351 0-4.6255-1.84147 2.111-1.84146 4.3108-2.42424 2.9181-2.33534-1.3927.0889-4.2657 1.706-5.8376 2.60486-1.572.89745-3.5475 2.87438-4.4901 3.59262-.9426.71824-2.7389 2.78409-3.3683 4.31089-.6293 1.5268-1.1669 4.7144-1.5268 6.1974-.3598 1.4817.0452 1.6609.3599 1.572.3146-.0903 1.2572-1.0781 2.0206-1.6171.7634-.539 1.1233-.6731 1.3476-.2695.2244.4035-.4487.6293-1.5719 1.2121-1.1232.5842-2.3354 2.4242-3.278 3.6829-.9426 1.2587-3.5926 5.1646-3.8621 7.3645-.2695 2.1998.4036 4.4011 1.5268 7.4096 1.1232 3.0084 3.2779 5.1645 3.6378 6.7351.3598 1.5705 0 4.3108-.5842 4.3108s-.5842-.9426-.4488-2.7389c.1341-1.7963-.9877-3.2328-1.3475-3.817-.3599-.5842-2.5597-4.5352-3.1877-6.6913-.6293-2.1562-2.65-1.3928-7.0046 1.4364-4.35459 2.8293-5.43689 6.5319-6.02813 8.4016-.46707 1.4774.46001 4.3433 5.83483 10.586 4.3927 5.1024 9.4444 6.9227 12.0944 7.9557 1.0512.4106 2.4002.7775 3.7182 1.0907.1623.0381.3147-.0889.3062-.2554-.055-1.0936-.1595-2.5343.0959-2.832.2823-.3288.2174-.3655 1.0033-.3824.3345-.0071.5616-.6505.6421-1.3575.0183-.1552-.0649-.3048-.2046-.3753-1.1543-.5828-2.691-1.3039-4.0357-1.905-3.0452-1.3631-4.356-1.3476-5.6585-1.3024-1.3024.0451-1.3024.0903-1.4816 0-.1792-.0903-.1792-.5842 1.8414-.9426 2.0207-.3599 3.0536-.0903 6.8706 1.2572.9229.326 1.7272.707 2.4158 1.1035.1411.0819.3104-.0409.2794-.2018-.0607-.3118-.1651-.6731-.3401-1.1147-.6265-1.5833-1.0512-1.7343-1.1599-2.1886-.1101-.4544-.1411-.9158-.3373-1.1515-.1961-.2356-.5573-1.0667-1.1528-1.349-.5955-.2822-1.8288-.8805-1.9388-2.1504-.1101-1.27.4741-1.9262 1.5126-2.1139.065-.0112.1285-.0211.1905-.0296.3895-.0508.6858-.3767.6887-.7704v-.206c-.0226-.9201.316-3.9285.3146-4.603-.0014-.5828.1129-.9426-.2921-1.7963-.4727-.9991-1.6608-2.0658-2.5823-3.1213-.92-1.0555-1.7511-3.0085-1.706-4.2432.0452-1.2346.5842-2.2224 1.2122-2.65.6293-.4261 1.459-.1792 2.5597 0 1.1006.1792 3.817.2696 5.9054.2018 2.0884-.0677 4.2882-.3147 6.5558-1.0103 2.2677-.6957 2.8744-1.0555 3.6378-1.0555.7634 0 1.2347.9878 1.4139 3.2328.1792 2.245-1.6608 4.737-2.4242 5.8828-.7634 1.1444-1.7963 2.4468-1.8415 3.5926-.0282.7112.3867 1.7004.8551 2.6599.1411.2893.5391.3316.738.0776.1129-.1439.2103-.254.2851-.3175.3767-.3132.9256-.5644 1.6933-.2667.7676.2978 1.205 1.2587 1.0343 2.54-.0945.7055-.9525 2.3381-.4685 2.5075.1679.0578.4995.158.7041.5658.2032.4078.4544.9567.3133 1.5832-.1411.6266.7676.4855.9722 1.0033.2032.5179.3923.8156.3768 1.1134-.0155.2977.7211.2977 1.1289.7055.4078.4078.8466.5517.8932 1.6397.0465 1.0879-.4544 2.0291-.8001 2.7191-.3443.6901-.5955 1.3321-.8001 1.6933-.2032.3613-.7845 1.27-1.5987 1.6863-.8156.4148-1.6679.7775-2.7277 1.1684-1.2318.4543-2.6345 1.0145-2.9788 1.2191-.3443.2032-.7634.3965-.7478.7409.0155.3443-.1877.5799-.4078.69-.2202.11-.4078.4078-.4544.5954-.0113.0466-.0169.1186-.0169.199 0 .127.1128.2244.237.2046 2.0743-.3132 4.888-.8749 7.5394-1.7144 4.4012-1.3928 9.34-4.8499 9.9242-5.2535.5842-.4036.8085.0451-.1341-1.9304-.9426-1.9755-1.5268-2.1547-2.5145-2.784-.9878-.6294-1.5268-.9426-1.2121-1.4817.3146-.539 1.5719.6294 2.8743 1.5268.9511.6562 1.9036 2.1519 2.3467 2.9097.1383.2356.4586.2808.6561.0917.9511-.9017 3.4275-3.4275 5.4835-7.0441 2.6048-4.5804 4.1768-10.5973 3.9073-11.1363-.2695-.539-.9426-1.3476-.6731-1.7963.2695-.4487.8833.9158.9722.5122.0903-.4036.1355-2.8095.1073-4.8146l-.0043.0014Z"></path></svg><style>@media (prefers-color-scheme: light) { :root { filter: none; } }
@media (prefers-color-scheme: dark) { :root { filter: none; } }
</style></svg>