<?xml version="1.0" encoding="UTF-8"?> <svg xmlns="http://www.w3.org/2000/svg" fill="none" viewBox="0 0 34 34"><path fill="#FFF600" d="M17 34c9.3888 0 17-7.6112 17-17 0-9.38884-7.6112-17-17-17C7.61116 0 0 7.61116 0 17c0 9.3888 7.61116 17 17 17Z"></path><path fill="#000" d="M19.2739 2.15685c-.0668.04409-.1329.08818-.2003.13162-.3521.22432-.706.44411-1.0549.67362-.1205.07909-.2282.17894-.3371.27424-.059.05187-.1141.11152-.1601.17505-.1064.14847-.0804.27749.0888.34038.166.06159.343.10827.5187.12772.4622.05187.929.06937 1.39.13226.3747.05122.7449.13745 1.1132.22627.4013.09725.7981.21395 1.1955.32741.0817.02334.1582.06807.2328.11022.0291.01685.0473.05381.0706.08169-.0337.0201-.0654.05381-.1005.0577-.1958.0201-.3922.02853-.5873.04992-.1777.01945-.3592.03242-.5291.08234-.3786.11151-.4486.38187-.1595.65158.3151.29434.6477.56988.9835.84089.5505.44411 1.1132.87395 1.663 1.31936.1712.13809.3235.30018.474.46161.0641.06873.1121.1582.1458.24637.0143.03825-.0136.10892-.046.14264-.0181.0188-.0947.00518-.1264-.01881-.0882-.06548-.166-.14522-.2503-.21654-.1971-.16727-.3903-.34038-.5964-.49598-.0908-.06872-.2062-.10957-.3164-.14587-.0889-.02918-.1718.01296-.2289.08558-.0558.07196-.0091.13874.0305.19904.2087.31703.4532.61527.6224.95175.4752.94528.9303 1.90089 1.3725 2.86239.33.7171.6328 1.4484.8188 2.218.0895.3702.1317.7527.1796 1.1313.0325.2509-.07.4636-.2632.6218-.2185.1789-.446.3481-.673.5167-.4518.3358-.9089.6665-1.285 1.0898-.1393.1569-.2684.3255-.3786.5038-.1556.2509-.3235.4882-.5381.6924-.0337.0318-.072.1076-.0571.1323.0409.0661.1154.0512.1744.0136.0577-.037.1161-.0772.1615-.1277.1381-.1543.2801-.3067.4026-.4727.3397-.4622.7598-.837 1.2318-1.1572.5913-.4014 1.2001-.7735 1.8478-1.0795.3261-.1543.6723-.2295 1.0308-.2373 1.3291-.0285 2.6582-.0525 3.9867-.0765.1238-.002.2483.0052.3727.0097.1952.0078.3482.0979.4046.2833.0616.2023.1206.4156.1225.6244.0078.7592-.0084 1.5184-.0175 2.2782-.0006.0701-.0168.1401-.0298.2406-.057-.0461-.0927-.0694-.1212-.0992-.0623-.0642-.118-.1355-.1835-.1965-.024-.0227-.0765-.0421-.0998-.0304-.0292.0149-.059.0635-.0584.0966.0013.0739.0091.153.0376.2204.0486.1134.1024.2289.1764.3267.1368.1816.1465.3735.1063.5874-.1537.8195-.4117 1.6079-.6957 2.3885-.625 1.7181-1.4944 3.2968-2.6971 4.681-.3416.3929-.7151.7572-1.0749 1.1346-.0259.0266-.0558.0493-.0934.0817-.0272-.0467-.0499-.0837-.0713-.1219-.247-.4286-.4914-.8694-.8655-1.1936-.4046-.3508-.859-.6451-1.2928-.9621-.0298-.0221-.0674-.0363-.1031-.0474-.0732-.022-.1517-.0473-.2074.0312-.0538.0758-.0701.1653-.0143.2418.0512.0713.1154.1387.1874.1893.175.1232.3514.2457.5374.3495.4033.2262.6944.5523.8947.9627.1349.2756.2665.5524.3897.8331.0707.1608.0486.1764-.1018.2665-.1893.1135-.3695.2418-.5537.3631-1.0684.7015-2.17 1.344-3.3512 1.8393-.8137.3417-1.6617.5725-2.522.7514-.7586.1576-1.5243.2827-2.288.413-.2581.0441-.5206.0603-.7819.083-.0849.0078-.1718-.0026-.258-.0065-.085-.0039-.1213-.0531-.12-.1361.0052-.4688-.0188-.9408.0901-1.4017.0448-.19.1077-.3787.19-.555.0551-.118.1407-.2373.2431-.3164.8526-.6548 1.7615-1.2169 2.7892-1.5528.4376-.1432.896-.2204 1.3407-.3442.2308-.0642.4571-.1524.6736-.2535.1485-.0694.1816-.1867.1511-.3274-.0188-.0882-.0713-.1517-.1575-.1543-.1537-.0033-.3113-.0072-.461.022-.7754.1511-1.5424.3352-2.2666.662-.6334.2852-1.2046.6716-1.755 1.0892-.2477.1873-.4882.3838-.732.577-.3955.3131-.5861.7255-.6153 1.226-.0246.4195-.0674.8383-.1031 1.2578-.0097.1179-.0778.1867-.2107.175-.1497-.013-.2989-.0473-.446-.0797-.804-.1777-1.6105-.3443-2.4099-.5401-1.2824-.3145-2.4909-.8247-3.65596-1.4406-.16338-.0862-.17116-.1225-.12383-.2976.08169-.2989.14977-.6017.23664-.8992.06678-.2283.15431-.45.23211-.675.01232-.0356.03306-.0713.03501-.1076.00972-.1549.11411-.2561.20943-.3572.0382-.0409.116-.061.1757-.0616.4817-.0052.944.105 1.3952.2632.8545.3002 1.6636.7028 2.4747 1.0996.4026.1971.7897.424 1.1852.6347.1121.0597.2262.1187.3455.1615.1193.0427.1939-.0325.1517-.1524-.0304-.0862-.0797-.1686-.1335-.2438-.2101-.2917-.4785-.5245-.7657-.7365-.5576-.4123-1.1761-.7021-1.8303-.9239-.5874-.1984-1.1683-.4175-1.779-.5368-.3319-.0648-.6645-.0694-.9991-.0292-.1141.0137-.1861-.0687-.1498-.1828.0428-.1348.096-.2658.1453-.3987.0253-.0681.0609-.1336.0745-.2036.0409-.2127.179-.3345.3644-.4175.4052-.1816.8111-.3631 1.2156-.5466.0811-.0369.1615-.0791.236-.127.4506-.2879.7819-.6931.8805-1.2286.0499-.271.0557-.5284-.0143-.7923-.0253-.0953-.0772-.1381-.1219-.2276-.0298-.0596-.0272-.1057.0298-.1413.1051-.0661.2094-.1342.3177-.1932.061-.0331.094.0045.0934.0966-.002.2379-.0383.4337-.0383.6717 0 .0551.0046.1102.0136.1646.0577.345.2114.474.557.5122.894.0986 1.7842.061 2.675-.0376.778-.0856 1.5541-.1822 2.3178-.3579.1673-.0389.3313-.0927.4973-.14.2308-.0668.4207-.2016.601-.3553.1718-.1459.2314-.3274.1556-.5381-.0642-.1776-.1478-.3482-.2269-.52-.1757-.3818-.3599-.7598-.5304-1.1443-.1958-.4415-.1621-.8765.0856-1.2882.1848-.3073.3806-.6082.579-.9064.3326-.4992.6794-.9907.9219-1.5437.1647-.376.2904-.7631.2781-1.178-.0116-.376-.0577-.7495-.1744-1.11-.1569-.483-.3572-.5951-.8409-.4506-.4155.1245-.8253.2691-1.2383.402-.695.2237-1.4075.3598-2.133.435-.9641.0999-1.9307.1018-2.8961.0487-.474-.026-.8798-.1064-1.3518-.1628-.1926-.0227-.3203-.0402-.5057.0402-.0759.0331-.1154-.0162-.1323-.0745-.0291-.0986-.0447-.201-.0667-.3021-.0629-.2931-.0227-.5848.0246-.8727.0467-.282.1232-.5861.1472-.8707.0304-.3553 0-.5187-.0649-1.167-.0194-.1939-.0278-.3631-.057-.5258-.0078-.0428-.0013-.1031.0246-.1349.2367-.2963.3436-.5284.5926-.8149.1569-.1809.3546-.3151.5725-.4202.1705-.0816.3384-.1711.5011-.26772.1245-.07391.1479-.14133.1057-.22432-.0518-.10179-.1517-.14004-.2742-.07261-.1712.09465-.3385.20098-.4934.32025-.199.1537-.3838.3261-.5764.4889-.0551.0466-.1128.092-.1757.127-.1212.0675-.2399.0214-.26-.1141-.0188-.127-.0272-.2645 0-.389.2075-.93098.4124-1.86328.6438-2.78846.144-.57377.5012-1.03798.8617-1.49571.3468-.44022.7721-.79615 1.1968-1.15598.5025-.42595.9725-.896 1.5372-1.24156.7975-.48755 1.6111-.94916 2.5039-1.2474.1394-.04668.2885-.06548.4344-.08882.0564-.00908.1167.00454.1757.00778.0032.01297.0071.02593.0103.03825l.0026-.00065ZM16.8647 27.0367c.0013.0085.0026.0169.0033.026.3338-.0467.6729-.0694 1.0003-.144.9686-.2211 1.6941-.7436 2.0416-1.7135.109-.3047.2419-.601.271-.9291.0266-.3008-.0434-.3592-.3189-.2489-.5751.2301-1.1716.3831-1.7784.4972-.719.1355-1.4458.2127-2.1758.2529-.743.0408-1.488.1108-2.2206-.1031-.1556-.0454-.2055.0097-.1504.166.0545.1549.1225.3086.2094.4473.2308.3696.5349.6756.8772.9427.6581.5141 1.3926.8195 2.2413.8072v-.0007Z"></path><path fill="#000" d="M13.1772 18.3165c.201.0759.3041.227.411.3884.0941.142.1842.2807.1868.4506.0032.2198-.0143.4396-.0266.6594-.0039.0719-.0221.1432-.0292.2152-.0233.2256-.1323.4033-.3015.5478-.0253.0221-.0499.0441-.0765.0681.3462.249.4733.6801.3813 1.086-.0487.2159-.1239.4169-.2555.5932-.225.3008-.5459.4545-.8908.5686-.0376.0123-.0765.022-.1238.035.3196.258.4201.5965.4123.9725-.0052.2678-.153.4889-.2704.7197-.1329.2599-.3526.4194-.6016.5465-.378.1926-.7579.3812-1.1411.5628-.1523.0719-.3157.1193-.4733.1796-.0265.0103-.0629.0239-.0726.046-.0907.212-.1893.4221-.2626.6405-.13221.3949-.2554.7936-.3708 1.1943-.15171.5271-.2937 1.0568-.43827 1.5858-.02918.1063-.05122.2146-.07521.3229-.03112.14-.1569.1977-.27943.1173-.29435-.1932-.59064-.3831-.87526-.59-.67232-.4895-1.27851-1.0529-1.8296-1.6753-.36371-.411-.73521-.8149-1.09763-1.2273-.09725-.1102-.18283-.234-.25609-.3617-.02853-.05-.02205-.131-.00843-.1926.02788-.1297.05705-.2619.11151-.3819.05576-.1231.13615-.2372.21784-.3462.02075-.0272.09142-.0356.13226-.0253.06419.0163.08364-.011.10957-.0583.16857-.3157.33519-.6334.51284-.9446.11929-.2094.25349-.4104.389-.6101.02074-.0305.08493-.0434.12837-.0434.06353 0 .11994.0343.10827.1089-.01621.0998-.02658.2068-.07132.2943-.12837.2477-.27684.485-.41039.7307-.07456.1374-.13356.2833-.19969.4253.32352-.1122.37085-.0992.40391.1206.04927-.0188.09531-.0506.14328-.0525.07132-.0026.15301-.0033.21201.0291.07067.0389.06354.1245.03825.1971-.03566.1044-.03371.2023 0 .3119.02399.0784-.00454.175-.01815.2619-.00778.0499-.03436.0966-.05252.1446.24702.0817.29564.2094.16273.4363-.04668.0798-.10567.1517-.18023.2574.16338-.0155.30082-.0272.43762-.0415.10633-.011.21201-.0305.31834-.0376.08947-.0065.16921.0117.212.1115.01038.0234.07262.0376.10957.035.16922-.0123.20034.0007.27295.1459.01815-.0026.0402-.0129.05705-.0071.0402.013.09725.0246.11152.0538.01685.035.00972.0972-.01232.1316-.04085.0655-.09984.1193-.15171.1777l.01491.0337c.09206-.026.18672-.0461.27619-.0791.06419-.0234.12254-.0629.18283-.0966.12448-.0694.18867-.0363.19774.1031.0013.0155.00519.0317.03307.0596.06159-.0914.11929-.1861.18737-.2729.03436-.0441.08688-.0733.13161-.1096.03371.0473.09206.092.0979.1426.0376.3119.06354.6244.09336.9369.01167.1199.02464.2398.04668.3617.25804-.6969.35658-1.4367.6049-2.1667-.08558-.0045-.15236-.0201-.2146-.0097-.42466.07-.84803.1465-1.27269.2185-.33065.0557-.63407-.0318-.90377-.2146-.16079-.109-.30602-.2471-.44152-.3877-.16273-.1686-.23924-.3806-.21849-.616.02399-.2775.06483-.5536.09012-.8311.01686-.1913.03955-.3858.02075-.5751-.01167-.1154-.07521-.2418-.15301-.3313-.31055-.3579-.49274-.767-.51284-1.2377-.01296-.3079.03242-.6139.16922-.8953.04149-.0856.03112-.1355-.03825-.1906-.1167-.0921-.22238-.1919-.28851-.3326-.12837-.273-.14328-.5628-.16533-.8558-.02398-.3216.14069-.5641.28981-.8163.05965-.1005.13096-.1958.21006-.2814.1154-.1257.17829-.2788.18867-.4382.01102-.1725.00518-.3566-.04215-.5213-.1919-.6645.12643-1.145.62759-1.4633.2723-.1725.57897-.2107.88044-.2781.03177-.0072.07132-.0162.09142-.0383.32222-.3546.65352-.7021.95888-1.0704.20942-.2528.29759-.5666.30991-.8947.01297-.3378.02334-.6762.01621-1.014-.00843-.3786-.05057-.7572-.05511-1.1359-.00454-.3403.06548-.6703.19904-.9867.1141-.2704.3112-.448.56855-.5745.2911-.1426.5848-.1569.8928-.0583.3002.0959.4934.295.6004.5822.0265.0713.0155.1562.0259.234.0136.0979.0311.1952.0486.2924.0169.0915.0447.1816.0525.273.0227.282.0441.564.0551.8461.024.5984-.009 1.1936-.14 1.7797-.1186.529-.0175 1.0425.1011 1.556.0169.0726.0649.0667.1174.068.4947.0162.9077.2354 1.2837.5317.2308.1821.3216.4512.3358.7326.0123.2464-.0149.496-.0395.743-.0156.1601-.1135.2852-.2399.4026l-.0026-.002Zm-6.53522 2.9967c.00195-.0033-.00778.0084-.00972.0207-.0415.3002-.08818.5997-.1193.9012-.00843.081.0201.1718.05187.2496.09271.225.21849.4273.4078.59.09207.0784.16727.1835.22757.2898.05186.0921.01426.1562-.08688.1887-.06548.0207-.07974.0538-.07326.1212.01361.1439.01556.2892.01945.4337.00259.0986-.00195.1978 0 .2963.0013.1128.0201.2276.00519.3385-.06549.4849.13615.8246.58544.9763.48301.1634.97315.1317 1.46135.0441.23988-.0428.47393-.1193.70733-.1932.37088-.118.76308-.116 1.13588-.2528.3514-.129.6918-.2691 1.0127-.459.0642-.0383.1329-.0837.1738-.1433.1834-.2691.3611-.5505.3708-.8837.0058-.1978-.116-.3696-.2775-.496-.0201-.0162-.0512-.0266-.0771-.0266-.1718.0013-.3462-.009-.5155.0136-.293.0389-.5841.096-.8752.1498-.4221.0785-.86035.0648-1.26556.2367-.05381.0226-.1355.0778-.16922-.0117-.02982-.0785.06224-.0986.11217-.1368.11735-.0895.29499-.1012.34945-.2723.00454-.013.02464-.0253.0402-.0305.11475-.0369.22826-.0797.34496-.107.1802-.0421.365-.0654.5452-.1102.2678-.0655.5297-.1543.7987-.212.3761-.081.734-.2139 1.0893-.3559.0713-.0285.1361-.0804.1957-.131.0707-.0596.1304-.1329.1984-.1951.1284-.118.2159-.2516.2399-.4318.0292-.2159-.0097-.4098-.1329-.5861-.0194-.0279-.057-.0506-.0908-.0616-.2898-.0921-.5919-.1297-.8914-.1297-.3333 0-.6665.0461-.9997.0746-.5764.0486-1.15279.1005-1.7298.1472-.03696.0032-.07716-.0286-.11606-.0441.02334-.0376.03761-.094.07132-.1103.14652-.0713.28527-.1659.46097-.1601.07845.0026.15754-.0156.23597-.0259.5122-.0662 1.0231-.1498 1.5366-.1939.387-.033.778-.0149 1.167-.022.033 0 .0732-.011.0966-.0324.0771-.0701.1374-.1641.2237-.2179.1705-.107.28-.2522.3047-.446.0298-.2321.0583-.4675.048-.6996-.0098-.2198-.107-.4156-.3313-.507-.0889-.0363-.1835-.0661-.2782-.0778-.2801-.0343-.5608-.0635-.8422-.0856-.2989-.0227-.599-.035-.8986-.0512-.4784-.0266-.9569-.0518-1.43538-.0797-.09271-.0052-.18607-.0117-.27813-.0266-.04993-.0084-.10633-.048-.05187-.0986.08169-.0758.17116-.1497.29694-.1478.28267.0039.56534.0046.84804.0046.411 0 .8214-.0072 1.2325-.0026.3027.0032.6075 0 .907.0356.2088.0247.3734-.0875.4033-.2723.0285-.1731.0356-.3501.0706-.5212.0454-.2231-.0473-.4111-.1238-.6056-.0078-.0201-.0318-.0356-.0506-.0493-.164-.1186-.3248-.2418-.5219-.3086-.1925-.0654-.3799-.1355-.5906-.1329-.5939.0065-1.1878.002-1.7817.002-.12767 0-.2554 0-.38312.0052-.39937.0162-.79875.0337-1.19812.0531-.17505.0085-.35334.0078-.5245.0409-.22757.0441-.44087.1413-.62824.2794-.28657.2107-.507.4636-.45319.8558.01232.0882.03436.1757.0603.2613.06937.2334.04279.4629-.01621.6937-.01362.0538-.01815.1148-.00908.1699.01427.0836-.00518.1491-.06613.2055-.07132.0655-.14328.1303-.212.1977-.12513.1232-.22887.26-.236.4454-.00778.2069-.01815.413-.01621.6198.00065.0804.01103.1738.05252.238.12059.1874.25415.3663.39224.5413.06484.0824.14199.1543.13486.2685-.00195.0304-.01816.0758-.04085.0862-.06483.0298-.13615.0447-.21914.07l.00065-.0006Zm2.14016-5.3663c.15171-.0104.32935-.0324.50635-.0331.57312-.0032 1.14561.002 1.71871.002.0435 0 .0875-.0124.131-.0227.0655-.0156.0856-.0506.0674-.1213-.0298-.1128-.0557-.2288-.0655-.3449-.0395-.4532-.024-.9031.0973-1.3446.1193-.4338.094-.8746.07-1.3155-.0097-.1854-.0285-.3728-.0169-.5569.0169-.2639.0176-.5226-.0654-.7767-.0538-.1634-.1135-.3255-.155-.4921-.0246-.0992-.0817-.1556-.1653-.1945-.2593-.12-.5077-.0636-.7417.0655-.20942.1154-.26259.3371-.32029.5465-.09984.3611-.09595.7294-.059 1.0983.05382.5368.0616 1.0749.01297 1.6118-.0389.4324-.1744.8357-.45448 1.1799-.19256.2373-.38187.4772-.55952.6989l-.00064-.0006Z"></path><path fill="#000" d="M4.65857 25.6412c-.00518.0279-.04019-.0175-.04992-.0311-.42855-.5939-.80005-1.1567-1.07235-1.84-.09854-.247-.15949-.5116-.21071-.7735-.02593-.1342-.0175-.2865.01881-.4188.24961-.9077.61397-1.7628 1.19682-2.513.32612-.4188.69761-.7922 1.11644-1.117.02982-.0234.0752-.0253.1141-.0376.00389.0479.02075.0998.00843.1426-.04408.1478-.11994.2885-.14393.4383-.05316.3287.0013.6554.0992.9692.05835.188.12837.3599.2146.5394.0175.037.04084.0791.07326.0986.10957.0648.09206.1491.0564.2464-.18218.4972-.11021.9381.0616 1.414.02204.0616.04862.1225.06094.1867.02917.1562.01037.2937-.118.4247-.12837.1309-.19515.2956-.29694.4505-.19061.2918-.37279.5881-.56081.8818-.0175.0272-.04473.0596-.07326.0668-.10697.0278-.17505.0979-.21784.1912-.07067.1524-.1342.3073-.19774.4629-.02982.0726-.0402.1109-.0791.2179Zm9.01893-8.2196c-.0402-.2697.0169-.5543-.1342-.8071-.046-.0772-.0097-.1226.0837-.1193.3449.0123.5977.0246.9426.0227.614-.0039 1.2293-.0039 1.842-.0441.6814-.0441 1.3595-.1375 2.0124-.3488.2178-.0707.4195-.1906.6321-.2808.155-.0654.3138-.1225.4727-.1763.0797-.0272.1627-.0162.2146.0571.0551.0771.0149.1536-.0299.2204-.1037.1562-.2483.2671-.4123.3533-.2529.1329-.3968.3346-.4104.6244-.0013.0272-.011.0538-.0162.081-.0357.179-.1433.2957-.3145.3521-.2794.092-.5517.1031-.8175-.0558-.2496-.1491-.5096-.2878-.8052-.3047-.2503-.0143-.5025.0045-.754.0123-.3275.0097-.6549.035-.9823.0318-.2561-.0026-.483.0596-.6911.2042-.1102.0772-.2153.1647-.3345.2256-.1336.0688-.1848.1368-.3287.179-.1349.0389-.1686.0039-.1706-.1336v-.0934h.0013Zm1.7981 4.5865c-.2438-.0558-.4947-.0921-.7301-.1725-.3578-.1232-.4992-.3877-.4454-.7631.0149-.1057.024-.2133.0506-.3157.0454-.1744.1835-.2568.3624-.2276.5874.0947 1.0808.6814 1.0795 1.2792 0 .0979-.0467.1491-.1355.1646-.0571.0098-.1167.0078-.175.0117-.002.0078-.0046.0162-.0065.024v-.0006Zm2.4512-.939c-.0402.0954-.057.2146-.1251.2821-.2023.199-.4363.3617-.721.422-.2878.061-.4972-.1491-.446-.4395.013-.0739.0272-.1524.0629-.2172.1413-.2594.2865-.5174.4415-.7683.0447-.0733.1212-.1329.1945-.1809.1212-.0791.2392-.0493.3261.0661.0143.0195.0272.0402.0389.061.0869.1562.1997.5854.2003.7644.0091.0039.0182.0078.0273.0116l.0006-.0013Z"></path><path fill="#FFF600" d="M16.8651 27.0367c-.8487.0129-1.5832-.2931-2.2413-.8072-.3423-.2671-.6464-.5731-.8772-.9427-.0869-.1387-.1549-.2924-.2094-.4473-.0551-.1563-.0045-.2114.1504-.166.7326.2139 1.4776.1446 2.2206.1031.73-.0402 1.4568-.1174 2.1758-.2529.6068-.1141 1.2033-.2671 1.7784-.4973.2755-.1102.3462-.0525.3189.249-.0291.3281-.162.6244-.271.9291-.3475.9699-1.073 1.4924-2.0416 1.7135-.3274.0746-.6665.0973-1.0004.144-.0012-.0085-.0025-.0169-.0032-.026v.0007Zm-8.0832-11.09c.17764-.2224.36696-.4623.55951-.6989.28008-.3443.41558-.7476.45448-1.18.04863-.5362.04085-1.0743-.01296-1.6118-.03696-.3689-.04085-.7371.059-1.0982.05835-.2095.11086-.4312.32027-.5466.2341-.129.4824-.1854.7417-.0655.0836.0389.1407.0953.1653.1945.0415.1666.1012.3287.155.4921.0836.2542.0823.5128.0655.7767-.0117.1848.0071.3715.0168.5569.024.4416.0486.8824-.07 1.3155-.1212.4415-.1375.8915-.0973 1.3447.0104.116.0364.2321.0655.3449.0188.0706-.0019.1057-.0674.1212-.0428.0104-.0869.0227-.131.0227-.5731 0-1.14557-.0052-1.7187-.0019-.17764.0013-.35464.0226-.50635.033l.00065.0007Zm2.3288-2.6679c-.0927-.0668-.1945-.0746-.3028-.0642-.1666.0149-.3345.0246-.5011.0382-.0577.0046-.1154.0156-.1874.026.1452.1601.8072.1763.992 0h-.0007Zm-.4998 1.8957c-.0039-.0071-.0085-.0143-.0124-.0214-.2314-.0454-.4622-.0934-.69433-.1323-.02983-.0051-.0804.0266-.09596.0545-.01102.0195.01621.0681.03696.0947.0175.0227.04992.0369.0778.0486.16333.07.33523.0791.50633.048.0642-.0117.1213-.0603.1816-.0927v.0006Z"></path><path fill="#000" d="M11.1111 13.2786c-.1841.1764-.8467.1602-.992 0 .072-.0103.1297-.0214.1874-.0259.1673-.0136.3346-.0227.5012-.0382.1082-.0098.21-.0026.3027.0641h.0007Zm-.4993 1.8965c-.0603.0317-.1173.081-.1815.0927-.1712.0311-.343.0214-.50637-.048-.02788-.0123-.06029-.0259-.0778-.0486-.02074-.0273-.04798-.0752-.03695-.0947.01556-.0285.06613-.0596.09595-.0544.23207.0395.46287.0875.69437.1322.0039.0071.0084.0143.0123.0214v-.0006Z"></path></svg> 