<?xml version="1.0" encoding="UTF-8"?> <svg xmlns="http://www.w3.org/2000/svg" fill="none" class="mx-auto mb-8 size-28 sm:mb-0 sm:ml-0 sm:mr-4 sm:inline-block sm:size-16" viewBox="0 0 137 133"><path fill="#fff" d="M28.0664 114.069c.1443-.096.2684-.063.3187.086.3186.815.8318 1.636 1.2913 2.073.4159.335.8452.365 1.0901.07.6272-.755-3.0455-3.67-.7279-6.46 1.4255-1.715 3.6828-1.795 5.6516-.195.919.745 1.7777 2.064 2.1366 3.276.0503.149.0033.282-.0872.315l-2.3177 1.143c-.1442.096-.2683.063-.3186-.086-.3388-.875-.852-1.743-1.2746-2.147-.4025-.325-.8117-.358-1.0431-.076-.6272.755 3.0824 3.677.7412 6.496-1.4154 1.702-3.6961 1.759-5.6951.142-1.0901-.884-1.9521-2.14-2.1768-3.177-.0403-.162-.0034-.281.0872-.314l2.3176-1.143.0067-.003Zm17.2909 13.618c-.0067.126-.1174.202-.2683.202-1.1404.116-2.4753-.123-3.5922-.659-3.1059-1.494-4.1323-4.638-2.5458-7.858 1.5865-3.22 4.7225-4.363 7.8318-2.869 1.1169.537 2.1298 1.431 2.7402 2.385.0906.116.1006.252.0034.335l-2.0158 1.593c-.1275.106-.2549.1-.3455-.019-.4025-.58-.8955-.948-1.5428-1.259-1.3584-.653-2.747-.103-3.4749 1.371-.7278 1.474-.3052 2.892 1.0499 3.545.6473.311 1.2443.467 1.9554.424.1509 0 .2348.092.2281.258l-.0235 2.547v.004Zm11.2726-7.566c.1476.036.2147.175.1778.304l-2.8241 10.587c-.0302.113-.1577.199-.3019.163l-2.8711-.749c-.114-.03-.1979-.172-.1677-.285l2.8241-10.587c.0336-.129.1778-.212.2918-.182l2.8711.745v.004Zm11.8828 9.904c.1341.01.2448.116.2381.232l-.1677 2.528c-.0067.116-.1308.225-.265.215l-7.7814-.507c-.1174-.006-.2247-.149-.2515-.265l.7278-10.925c.01-.149.0973-.225.2482-.215l7.6137.494c.1509.01.2616.132.2516.248l-.1677 2.494c-.0101.149-.1342.242-.2851.232l-4.367-.285-.0872 1.306 3.5486.231c.1509.01.228.13.2046.229l-.3891 2.299c-.0235.099-.1476.205-.2985.195l-3.2468-.212-.0939 1.405 4.5683.298v.003ZM82.839 119.7c.1475-.027.2683.07.2951.199l2.0527 10.759c.0201.113-.057.245-.2046.275l-2.8509.53c-.1141.023-.2784-.033-.3858-.146l-3.8337-4.528.9627 5.045c.0201.113-.0571.245-.2046.275l-2.9181.543c-.1308.023-.2515-.069-.275-.185l-2.0527-10.76c-.0235-.129.0537-.261.1845-.288l2.8509-.53c.1476-.026.3287.023.4193.143l3.8169 4.531-.9592-5.028c-.0235-.129.0704-.265.1844-.288l2.9181-.544v-.003Zm17.0646 4.068c.0974.083.0872.215-.0067.334-.6138.954-1.6335 1.842-2.7537 2.372-3.116 1.477-6.2453.318-7.815-2.908-1.5697-3.227-.5266-6.364 2.586-7.845 1.1169-.53 2.4585-.761 3.5955-.639.151 0 .2617.08.2684.206l.0134 2.547c.0033.162-.0805.258-.2281.255-.7111-.05-1.3081.106-1.9554.414-1.3618.646-1.7877 2.06-1.07 3.538.7178 1.477 2.1064 2.034 3.4648 1.388.6507-.308 1.1437-.673 1.5496-1.249.0905-.116.218-.123.3454-.017l2.0091 1.604h-.0033Zm10.1894-9.954c.104-.083.258-.08.332.009l1.627 1.962c.073.089.057.251-.047.337l-6.034 4.883c-.091.073-.265.043-.366-.023l-7.0266-8.47c-.0973-.116-.0839-.232.0335-.328l5.9031-4.777c.117-.096.282-.08.356.01l1.606 1.934c.097.116.071.265-.047.362l-3.387 2.739.838 1.014 2.75-2.226c.118-.096.255-.057.309.029l1.308 1.942c.05.086.034.251-.084.344l-2.515 2.037.902 1.09 3.542-2.865v-.003ZM11.6321 42.0664c.0805-.2352.3589-.3744.5702-.3048l9.5154 3.1436c.2684.0895.4897.3247.5971.593.9257 2.279.9022 5.2935-.0571 8.129-2.1633 6.3834-7.9122 9.2156-14.37546 7.079-6.46328-2.1366-9.331-7.8143-7.167633-14.1977.741243-2.1863 2.180143-4.2732 3.837043-5.6314.20125-.1954.46957-.2053.62721-.0894l3.89742 2.9316c.18112.159.19789.3942.05031.6394-1.06994.9937-1.98895 2.4314-2.48871 3.9088-.92237 2.7196.43267 5.2041 3.36752 6.1713 2.9918.9872 5.5878-.1921 6.5102-2.9117.3689-1.0932.4125-1.9014.161-2.3453l-1.7341-.5731-.9223 2.7196c-.0906.265-.2684.4042-.4897.3644l-4.25968-.9805c-.30858-.0696-.45951-.3147-.34882-.6393l2.7134-8.0099-.0033.0034Zm23.8509-7.7349c-4.9842 4.4521-11.3535 4.0943-15.905-.8745-4.5917-5.0153-4.32-11.3125.6641-15.7646 4.9841-4.4521 11.3535-4.0943 15.9486.9209 4.5514 4.9689 4.2764 11.2661-.7077 15.7182ZM24.5152 22.3598c-1.9185 1.7126-1.8515 4.3428.161 6.5391 2.0124 2.1962 4.6521 2.5241 6.5706.8115 1.9185-1.7126 1.8514-4.3427-.161-6.539-2.0124-2.1962-4.6521-2.5242-6.5706-.8116Zm41.5168-2.3716c.2214.2352.057.5002-.218.5664l-6.5639 1.5602c-.3052.0729-.6339-.0728-.8251-.318l-4.7963-5.8467-.369.0862 1.6234 6.6649c.0503.212-.1107.4737-.3891.5399l-5.4 1.282c-.2448.0596-.5132-.1027-.5635-.3147L43.6571 4.18055c-.0604-.24182.1039-.50683.3488-.56314l8.1001-1.9213c4.7225-1.122962 8.5159.86127 9.5188 4.98212.5836 2.39499-.2985 5.16767-2.3646 6.68147l6.7718 6.6285Zm-12.2155-9.5336c1.0431-.2485 1.5932-1.05012 1.3584-2.02071-.2348-.97058-1.0968-1.43765-2.1399-1.18921l-1.8112.43063.7815 3.20989 1.8112-.4306ZM79.9669.669044c.2817.033126.4427.271632.4125.520076L77.8639 21.6377c-.0268.2153-.2415.4107-.5232.3776l-5.5443-.6658c-.218-.0265-.4125-.2683-.3857-.487L73.9262.413976c.0302-.248444.2751-.4372604.4964-.41075982L79.9669.669044ZM98.0922 23.7113c.1979.0927.2885.3412.1812.5664l-2.4552 4.0911c-.1241.1822-.4159.2882-.644.1789L84.884 23.7245c-.2281-.106-.3321-.3975-.2382-.5929l8.9453-18.60675c.1073-.22526.4025-.32795.6306-.22195l5.0445 2.36518c.228.10601.332.39751.2247.62277L92.7928 21.2235l5.3028 2.4845-.0034.0033Zm14.5738 13.0549c.155.1557.151.4207-.03.593l-3.74 2.9979c-.181.1292-.493.1258-.667-.053l-7.956-8.0496c-.178-.1789-.171-.487-.013-.6393l14.922-14.3899c.181-.1755.493-.1689.671.0067l3.901 3.9452c.177.1789.171.487-.007.6626l-11.176 10.7758 4.099 4.1473-.004.0033Zm6.802 27.3917c-.147.1491-.395.106-.483-.1292l-2.093-5.8135c-.094-.265-.03-.5499.165-.752l2.804-1.9776-1.986-5.5188-3.438.2154c-.278-.0332-.513-.2154-.607-.4804l-2.093-5.8135c-.084-.2352.081-.424.292-.4009l22.13-.2948c.211.0265.533.275.641.5698l2.156 5.9891c.104.2949.014.689-.134.8414l-17.35 13.565h-.004Zm9.304-14.9066-6.218.3975 1.14 3.1702 5.078-3.5677ZM22.4521 107.447c-.2985 0-.5903-.129-.7882-.378-6.4163-8.0064-10.629-17.5532-12.1853-27.6102-.45615-2.9515-.68758-5.9726-.68758-8.9804 0-.5499.44944-.9938 1.00621-.9938s1.00627.4439 1.00627.9938c0 2.9084.2247 5.8268.6641 8.679 1.5026 9.7157 5.5744 18.9413 11.7727 26.6796.3455.43.2717 1.057-.1643 1.394-.1845.146-.4059.216-.6239.216Zm92.1489 0c-.225 0-.453-.073-.641-.229-.429-.348-.489-.974-.137-1.398 7.798-9.3412 12.209-21.8958 12.427-35.3582.01-.5432.456-.9772 1.006-.9772h.017c.556.01.999.4605.989 1.0104-.225 13.9095-4.8 26.9014-12.886 36.591-.198.238-.487.361-.778.361h.003Z" class="text"></path><path fill="#000" d="M68.5278 112.369c23.6514 0 42.8242-18.9358 42.8242-42.2947s-19.1728-42.295-42.8242-42.295-42.8247 18.9361-42.8247 42.295c0 23.3589 19.1733 42.2947 42.8247 42.2947Z"></path><path fill="#FFF600" d="M68.5266 109.166c21.8601 0 39.5814-17.5018 39.5814-39.0916S90.3867 30.9827 68.5266 30.9827c-21.8601 0-39.5813 17.5019-39.5813 39.0917 0 21.5898 17.7212 39.0916 39.5813 39.0916Z"></path><g fill="#000" class="gorilla"><path d="M104.292 66.6691c-.624-.0497-7.5336.0961-9.7171.1458-2.1835.053-2.7537.053-5.457 1.59-2.7034 1.5404-4.3134 2.7196-5.3028 3.9519-.9861 1.2323-1.7676 2.3089-2.2338 2.0538-.4662-.255.4159-.4107 1.298-1.9511.8821-1.5403 2.3378-2.7196 4.5749-4.313 2.2338-1.59 2.2338-1.643 1.714-4.568-.5199-2.925-3.3273-8.7253-4.9909-12.0644-1.6636-3.3358-2.8275-3.6405-2.0795-4.1076.3488-.2186.9224-.0861 2.2338 1.0766.8855.7884 1.2377 1.2853 1.459.9407.2549-.3975-.5769-1.3515-3.0186-3.1966-2.4418-1.8484-3.7935-2.925-4.9372-3.9519-1.1437-1.0269-.4662-1.8484 1.298-1.9511 1.7676-.1027 2.4418-.1027 1.7139-.5135-.7278-.4107-3.0153-.9242-5.353-1.4376-2.3378-.5135-7.7949 0-5.3531-2.1035 2.4417-2.1035 4.9908-2.7726 3.3775-2.6699-1.6099.1026-4.9372 1.9511-6.7584 2.978-1.8179 1.0269-4.1054 3.286-5.1988 4.1076-1.0934.8215-3.1696 3.1833-3.8974 4.9291-.7279 1.7457-1.3517 5.3895-1.7676 7.0823-.4159 1.6927.0503 1.8981.4159 1.7954.3622-.1027 1.4556-1.2323 2.3378-1.8484.8821-.6162 1.298-.7685 1.5596-.3081.2583.4605-.5199.7188-1.8179 1.3847-1.298.6658-2.7034 2.7726-3.7935 4.2102-1.09 1.4377-4.159 5.9031-4.4709 8.4173-.3119 2.5142.4662 5.0318 1.7676 8.4703 1.298 3.4384 3.7934 5.903 4.2093 7.6984.4159 1.7954 0 4.9291-.6741 4.9291-.6742 0-.6742-1.0766-.5199-3.1304s-1.1438-3.6968-1.5597-4.3626c-.4159-.6659-2.9616-5.1842-3.6894-7.6488-.7279-2.4645-3.0656-1.59-8.1068 1.6431-5.0412 3.233-6.2922 7.4665-6.9764 9.6031-.54 1.6894.5333 4.9656 6.7517 12.1009 5.0847 5.8331 10.9309 7.9141 13.9998 9.0931 3.0656 1.179 8.3148 2.054 9.6664 2.411 1.3517.358 1.2478-.205 1.2478-.513 0-.308.1039-1.643.3119-3.286.2079-1.643.7781-2.206 3.9041-4.4654 3.126-2.2592 5.1384-2.8753 7.6875-3.4915 2.5458-.6161 3.2736-.6658 3.2736.2054s-1.8716 1.1793-4.6789 1.8484c-2.8074.6658-6.1849 2.8751-7.5869 3.9521-1.402 1.076-1.3517 4.005-1.3517 4.979 0 .974-.1543.974.7781.974.9325 0 6.8624-.719 11.9573-2.309 5.0948-1.59 10.8101-5.5456 11.4876-6.0061.6742-.4604.9358.0497-.1543-2.2061-1.09-2.2592-1.7675-2.4646-2.9113-3.1834-1.1437-.7188-1.7676-1.0766-1.402-1.6927.3622-.6162 1.8179.7188 3.3272 1.7457 1.506 1.0269 3.0153 3.8492 3.0153 3.8492s3.7935-3.2331 6.8083-8.4703c3.016-5.2371 4.834-12.1141 4.522-12.7302-.312-.6161-1.09-1.5403-.778-2.0538.312-.5134 1.023 1.0468 1.127.5863.104-.4604.157-3.2099.124-5.5055-.037-2.5772-.785-2.6732-1.409-2.7229l-.003.0099ZM65.3141 101.464c-.104.564-.8821.05-2.0259-.616-1.1437-.666-3.9041-1.9674-6.1849-2.9777-3.5251-1.5569-5.0411-1.5404-6.5504-1.4874-1.506.053-1.506.1027-1.714 0-.2079-.1026-.2079-.6658 2.1299-1.0765 2.3377-.4108 3.5351-.1027 7.9524 1.4376 4.4173 1.5404 6.4969 4.157 6.3929 4.724v-.004Zm10.0823-10.676c-.9358 2.1565-3.4312 3.9519-7.6137 3.9022-4.1826-.0497-7.275-3.5676-7.8217-4.9523 0 0-.2348-.4604-.208-.7685.0269-.3081.5971-.0497 1.2981.1027.701.1524 2.8341.2816 7.0938-.1524 4.263-.4373 6.6779-1.3615 7.4326-1.6695.7547-.3081.7547.1027.7547.4604 0 .3578 0 .9242-.9358 3.0807v-.0033Zm.597-16.1455c-.8821 1.3085-2.0795 2.7991-2.1298 4.1076-.0503 1.3085 1.2209 3.4385 1.9487 4.9291.7278 1.4874.104 1.8219-.7278 2.4381-.8318.6161-3.5855 1.1793-7.5635 1.6165-3.9745.4373-5.561.2551-7.1206.1027-1.5597-.1524-1.2746-1.6695-1.298-2.7196-.0269-1.0534.3655-4.4919.3622-5.2604 0-.6658.1308-1.0766-.3388-2.0538-.5467-1.1428-1.9218-2.3619-2.9884-3.5676-1.0666-1.2058-2.0259-3.4385-1.9756-4.8497.0503-1.4111.6742-2.5407 1.402-3.0277.7279-.4869 1.6905-.2053 2.9617 0 1.2745.2054 4.4173.3081 6.8355.2319 2.4183-.0762 4.964-.3577 7.5869-1.1561 2.6263-.795 3.3272-1.2057 4.2094-1.2057.8821 0 1.4288 1.1295 1.6368 3.6968.2079 2.5672-1.9219 5.4161-2.8074 6.7245l.0067-.0066Z"></path><path d="M61.8066 79.4955c-.0973.795-.5199 2.183 1.7139 2.6169 2.2338.4373 1.8447-.1523 1.8715-.4869.0269-.3346-.389-1.9246-1.8313-2.617-1.4422-.6923-1.7038.0696-1.7541.487Zm5.7137 1.5399c.094.742.909 1.0004 1.8179.4373.909-.5631 1.506-.7453 1.2209-1.9776-.2851-1.2323-.5199-1.7954-1.0532-1.7457-.5333.0496-1.0531.9242-1.469 1.6695-.4159.7453-.5702 1.2058-.5199 1.6165h.0033Zm-1.8674-12.1405c1.6636-.0497 5.5879-.4869 7.0436-1.2323 1.4556-.7453 2.1834-1.0534 2.4954-.7453.3119.3081-.3388 1.0269-1.0129 1.3847-.6742.3577-1.0063.742-1.0767 1.484-.0872.9143-.5735 1.2058-1.6938 1.3052-1.2142.1093-1.7642-1.3085-4.3301-1.0766s-2.8275.1292-3.3205.1292c-1.6636 0-2.0795 1.4939-3.7935 1.4939-1.8984 0-1.0397-1.7192-2.4417-1.8749-1.402-.1524-1.6905-.8215-1.61-1.1031.0772-.2815.4159-.255 1.7945-.0497 1.3785.2054 4.5481.3843 7.9524.2816l-.0067.0033Z"></path></g></svg> 