<?xml version="1.0" encoding="UTF-8"?> <svg xmlns="http://www.w3.org/2000/svg" fill="none" viewBox="0 0 505 266"><path fill="#FFF600" d="M410.038 44.8077c-1.404 2.0854-19.511 2.8163-23.577 2.3534-2.223-.5604-3.49-.7991-3.705-3.4108-1.165-5.501-1.209-14.4908-5.231-18.1501-2.296-1.8174-11.755 4.5997-12.501 9.1847-1.526 9.7694-4.875 27.2763-4.207 37.036.185 7.031.639 17.5215 1.204 20.9274.151.9063.405 1.5007.917 2.4216 1.804 3.0746 5.689 7.4211 9.146 8.9311 3.023 1.106 6.655 1.506 9.712.98 2.242-.527 4.392-14.004 4.407-15.4365-.015-.2631-.137-.4385-.346-.5798-1.487-.8771-4.442-1.6567-6.382-1.9247-1.921-.3752-4.183.2339-4.597-1.8856-.269-2.217.199-7.1578.185-10.1251.175-4.1075.921-11.4553 1.097-13.0583.034-.2193.073-.3704.244-.4922.619-.458 3.632-.0389 7.088.2437 6.684.57 21.145.9793 24.996 1.8125 1.058 2.6848-.39 9.8279-.668 13.6333-.775 6.0078-.102 14.8173-.833 22.2479-.819 6.0418-2.882 15.0168-3.048 21.4298-.029 1.135.147 1.929-.336 2.67-3.593 4.2-16.83 5.774-22.573 6.124-9.853-.121-23.031-1.442-28.959-9.793-4.822-6.573-8.079-13.288-9.59-20.2846-.727-7.5232-2.175-21.9653-3.164-34.0978-.122-3.1818-.546-5.3939.068-8.2346 1.068-4.3853 3.769-13.9549 6.187-19.5436 3.198-6.4561 10.048-21.0785 14.25-27.1935.191-.2339.317-.3411.527-.4775 5.992-2.61168 18.331-3.08919 27.741-2.2365 4.466.37518 8.673.91603 13.207 1.82719 5.709 2.33881 8.259 27.04241 8.746 35.06751v.0292l-.005.0049ZM172.801 28.8978c.403-.5994 1.357-.5442 2.043-.5718 2.343.0947 4.642-.2445 6.956-.5324 2.193-.1853 4.401-.3391 6.582-.4653 1.649-.2524 3.494.3234 3.593 2.2478.481 5.58 3.162 10.6159 4.909 15.8686 1.365 4.9609 3.478 9.6616 5.643 14.2991 1.144 3.1233 2.067 6.3214 3.36 9.4013 1.692 4.4956 2.138.351 2.236-1.8732.249-4.9569.935-9.8587.852-14.8314.079-5.0043.162-9.9889.355-14.9853.446-3.7108-.126-7.8633 1.01-11.4322 1.25-1.0687 6.763.3983 8.695.3825 1.581.2051 4.215.5324 3.951 2.6698-1.072 6.1597-1.262 12.1538-2.358 18.3372-.422 6.7237-.69 13.5025-1.203 20.2143-.134 3.1982.261 6.3293.69 9.4762.213 2.7842.245 5.6038.541 8.3839.185 8.5771.015 17.2011.485 25.7791.11 2.133.11 4.29-.044 6.42-.012 2.058-1.124 2.594-3.02 2.066-3.258-.726-7.051.035-10.044-1.542-5.068-9.606-9.138-19.9817-12.769-30.2545-2.426-6.2307-5.703-12.0592-8.597-18.0769-.836-1.9205-1.27-.2997-1.171.9109.209 5.162-.659 10.2965-.493 15.4664-.627 6.6605-1.688 13.2974-1.751 20.0011-.292 3.187-.19 6.31.153 9.492-.082 1.306.265 3.139-.52 4.172-.529.466-1.404.241-2.059.146-2.417-.394-4.85-.532-7.287-.8-4.283-.335-4.287-.793-3.881-4.969 1.85-15.1548 2.591-29.3868 3.321-44.5456-.26-8.3799-.162-16.7756-.17-25.1634.158-5.1936-.796-10.5291-.031-15.6596l.023-.0395v.0079Zm124.028 71.0896c1.226.9306 3.056.4536 4.523.6466 5.442.312 10.911-.7728 16.326-.556 1.53.45.864 3.869.938 5.174.083 3.119-.102 6.239.06 9.358.071 4.07 2.22 8.683.469 12.536-.686.608-1.81.351-2.67.371-8.407-.095-16.708-1.246-25.073-1.992-4.211.257-8.387 1.132-12.575 1.613-.635.095-1.266.099-1.53-.303-.635-8.652.978-17.513.962-26.24.808-5.8643-.004-11.7953.477-17.6829.741-7.2245 3.186-14.4844 1.885-21.776-.402-2.2201-.075-4.4719-.134-6.7118-.26-2.4923-.473-4.9767-.58-7.4847-.469-6.2386.059-12.5048-.272-18.7395-.122-.9149.406-1.6799 1.353-1.7588 2.149-.276 4.251-.8163 6.396-.8084 3.36.28 6.779.0986 10.127.5087.907.0552 1.613.5718 1.491 1.5537-.706 6.6251-1.152 13.2857-2 19.9028-.934 11.9252-2.697 23.7832-2.129 35.7557.366 3.8804 1.202 7.7174 1.447 11.6175.308 1.6089-.237 3.5136.473 4.9846l.032.0354.004-.0039Zm-24.273-46.6849c-.537-3.6832-1.794-8.1886-2.428-11.5272-.62-3.7946-3.138-7.9661-6.33-9.5744-2.151-1.0375-4.37-2.3047-6.639-2.6565-1.276-.1472-2.652-.0934-3.942-.1831-4.096-.3016-8.131-1.016-12.274-.9657-1.97 0-4.33 0-6.286.0754-.811.0933-1.571-.0646-2.061.481-1.513 3.4248-.281 9.1436-.41 13.3043-.109 3.1986-.018 8.7953-.155 12.8735-.415 4.1284-.191 8.6374-.188 12.9166-.601 9.3446-.879 20.9795-1.178 28.9599-.32 3.3607-.461 7.5207-.807 10.8417-.212 2.157-1.153 5.837-.699 8.253.08.119.202.187.346.234.652.208 2.353.685 3.945.793 1.02.072 1.942-.022 2.947.003 2.936.008 7.025.607 9.81.295 2.154-1.153-.692-14.819-.025-19.9135.385-3.7443 1.412-8.3358 2.175-11.9078.382-1.7339.703-3.1124.847-3.7227.112-.4272.015-.3806.458-.438 3.134-.4093 7.23-1.0231 10.422-1.795 3.955-1.0662 8.351-2.7965 9.846-5.9521.673-1.856 1.808-7.607 2.428-12.5791.274-2.6135.746-5.5823.202-7.7794l-.011-.0323.007-.0036Zm-16.543 11.3442c-1.636 1.4467-4.276 2.8181-6.391 4.0674-2.309 1.3067-4.456 2.4735-4.954 2.7283-.122.0467-.187.0252-.309-.0718-.548-.5205-.746-1.6836-.779-2.4734-.064-1.1488-.284-3.1376-.223-4.7351.126-3.5002-.601-9.7575-.63-12.9956-.015-2.0642-.094-6.2034-.098-7.4311.008-.2262.152-.3806.346-.4775 2.425-1.0195 7.195-2.3622 8.477-2.5883.778-.1221 1.391.3446 2.126.7215.839.4847 1.7 1.0411 2.496 1.6011 1.034.6319 1.366 1.4073 1.773 2.452.594 1.5795 1.127 3.3566 1.39 4.99.162 1.9314.022 4.2433.108 6.6485 0 .8257.08 1.4037.033 2.136-.22 1.4647-1.913 3.9166-3.333 5.3921l-.032.0323v.0036Z"></path><path fill="#FFF600" d="M305.846 38.1172c.633-.4395 2.349.3537 3.275.3885.066.002.132.0081.198.0204 1.144.2269 2.316.229 3.451.4866 1.119.2658 2.256.4314 3.401.5356.826.0041 1.474.3885 1.305 1.2615-.011.0491-.019.0981-.021.1472-.361 4.6205-.056 9.2778-.402 13.9024 0 .0245-.005.0491-.009.0716-.67 4.8556-.939 9.7807-.902 14.6752.015 1.0488.232 2.1263.657 3.0769.689 1.6295 3.876 3.5186 5.603 3.5554 2.091-.1104 2.658-5.2829 2.677-5.3709.109-1.4699-.013-2.1732-.456-5.5078-.659-4.9619-1.018-9.9606-1.752-14.9165-.234-1.934-.188-3.8906-.543-5.8185-.13-.5643.256-.9752.803-1.0591 1.587-.4068 3.201-.8075 4.786-1.2164.85-.2433 2.121-.734 2.34.5315 1.164 4.7064.873 9.6602 1.381 14.4565.002.0266.004.0511.006.0777.115 3.1056-.206 6.2275-.221 9.3289 0 .0655.004.1288.015.1943 1.679 10.3961 1.217 6.2949-2.729 15.7363-.027.0634-.06.1247-.097.1819-.617.9446-1.18 2.0915-2.144 2.7008-.136.0859-.289.1411-.448.1635-2.258.319-4.582.0961-6.854.3333-2.126.2924-3.928-1.01-5.385-2.392-.02-.0205-.043-.0389-.066-.0573-3.031-2.4268-5.717-4.8556-7.374-8.4416-.53-.9732-.446-2.114-.528-3.1833-.095-1.3002-.132-2.6087-.087-3.9131-.033-2.8766-.124-5.7491-.06-8.6379-.018-5.5098.087-10.9931.052-16.4969.074-1.5803-.508-3.2977.111-4.7983l.017-.0164ZM95.775.356908c1.6958-1.185376 6.286.953812 8.766 1.047542.177.00551.354.02205.531.05513 3.06.61199 6.197.6175 9.235 1.31219 2.994.71674 6.038 1.16332 9.104 1.4445 2.209.01103 3.944 1.04754 3.491 3.40176-.028.13232-.05.26464-.056.39696-.966 12.46021-.149 25.01971-1.077 37.49101 0 .0661-.011.1323-.022.1929-1.795 13.0943-2.513 26.376-2.414 39.575.039 2.8284.619 5.734 1.757 8.2977 1.845 4.3941 10.374 9.4884 14.997 9.5874 5.596-.297 7.115-14.2462 7.164-14.4833.293-3.9641-.033-5.8607-1.22-14.853-1.763-13.381-2.724-26.8612-4.69-40.2256-.624-5.2157-.503-10.492-1.453-15.6911-.348-1.5217.685-2.6299 2.149-2.8559 4.248-1.0972 8.567-2.1778 12.81-3.2805 2.275-.6561 5.678-1.9793 6.264 1.4335 3.115 12.6918 2.336 26.0507 3.695 38.9851.006.0716.011.1378.017.2095.309 8.3748-.553 16.7937-.591 25.1575 0 .1765.011.3474.038.5238 4.497 28.036 3.259 16.9757-7.302 42.436-.072.171-.16.337-.26.491-1.652 2.547-3.16 5.64-5.739 7.283-.365.232-.773.381-1.199.441-6.043.86-12.263.26-18.344.899-5.69.788-10.512-2.724-14.412-6.451-.055-.055-.116-.104-.177-.154-8.114-6.544-15.301-13.094-19.7363-22.765-1.4196-2.6241-1.1931-5.7005-1.4141-8.584-.2541-3.5065-.3535-7.0351-.232-10.5526-.0884-7.7573-.3314-15.5036-.1602-23.294-.0497-14.8586.232-29.6455.1381-44.4875.1989-4.26183-1.3588-8.89307.2983-12.939885l.0442-.044107ZM378.197 197.939c.152.335.185.76.185 1.145-.017 2.545-.255 5.119-.482 7.718-.049.603-.193 1.318-.745 1.632-.758.393-1.688.161-2.52.199-2.581.066-5.134.566-7.732.343-.91-.034-1.968-.24-2.816.115-1.165.699-.852 2.533-1.062 3.731-.465 6.62-.54 13.272-.453 19.908.008.372.074.88.313 1.087.634.475 1.56-.017 2.33-.05.935-.132 1.886-.157 2.812-.305 3.681-.781 7.44-1.542 11.215-1.591 1.128-.025 2.989-.252 2.878 1.396-.193 2.017-.564 4.013-.906 6.004-.362 1.756-.473 3.549-.358 5.326-.049 1.199.433 2.818-.535 3.698-.296.215-.712.29-1.153.306-2.717.021-5.443-.264-8.168-.128-6.757.141-13.521.298-20.265.665-1.371-.041-3.351.761-4.401-.334-.239-.323-.297-.798-.293-1.277.256-10.057.704-20.131.919-30.184.123-3.847.341-7.719.465-11.57.14-2.64-.037-5.276.276-7.9.251-1.537.774-3.049.523-4.624-.997-10.487-1.697-20.998-2.372-31.444-.07-1.533-.103-3.182-.037-4.723.029-.975.502-1.268 1.486-1.359 6.493-.467 13.035-.376 19.549-.554 2.128-.041 4.265-.384 6.406-.219 2.503.178 5.031.64 7.518 1.054 1.177.239 1.379 1.314 1.462 2.417.148 1.57.07 3.144.008 4.719-.074 1.896.304 3.747.539 5.636.239 1.966.367 3.946.404 5.925-.037 1.115.061 2.388-.441 3.405-.387.702-1.26.723-1.972.752-1.124.037-2.244.214-3.351.14-3.471-.512-6.901-1.273-10.38-1.826-1.832-.409-3.718-.752-5.583-.897-1.28-.202-1.544 1.116-1.622 2.12-.461 4.185-.729 8.429-1.408 12.598-.358 2.347-.844 4.021 2.153 4.289 2.273.389 4.587.575 6.897.674 2.26.314 4.524.632 6.809.702 1.285.174 3.129.021 3.895 1.236l.025.049-.012-.004Zm113.318 6.247c-1.731 1.952-4.736 1.512-7.146 1.845-5.843 1.03-11.966.303-17.726 1.738-1.267.506-1.297 2.035-1.452 3.202-.452 3.559-.625 7.255-.797 10.916-.208 2.19.238 4.315.381 6.493.143 4.012.184 8.119.922 12.119.684 4.35.422 8.785.619 13.177-.018 3.095 1.362 6.303.065 9.184-.571.964-1.868 1.042-2.897 1.107-5.701.292-11.389.696-17.066 1.214-.053 0-.101.006-.154 0-1.458-.03-3.285.316-4.356-.815-.619-.726-.666-1.976-.69-2.976-.012-2.536.267-5.053.196-7.595-.173-5.868-.869-11.707-1.119-17.57-.095-4.928-.315-9.85-.678-14.773-.333-3.124-.928-6.225-.773-9.392.065-2.97.017-5.91.345-8.844.261-2.643.833-5.256 1.083-7.899 0-.035 0-.077.006-.113.22-7.261 1.142-14.493 1.814-21.706.149-2.006.096-4.018-.059-6.018-.464-5.172-.536-10.374-1.137-15.534-.612-9.363-.803-18.755-1.225-28.135-.066-1.744-.191-3.494-.476-5.208-.28-1.256-.024-2.714 1.469-2.94 10.015-1.084 20.059-1.941 30.037-2.952.101-.012.208-.012.315 0 10.55.952 21.082 2.487 31.626 3.452 1.505.125 2.457 1.208 2.35 2.72.048 7.059-.571 14.106-1.672 21.07-.214 1.636-1.63 2.291-3.153 2.243-1.613.084-3.231.114-4.844.215-8.77.619-17.493 1.464-26.211 2.386-3.284.28-5.23.613-5.462 4.381-.619 7.41-.958 14.844-.922 22.266-.06 2.964 3.51 2.405 5.551 2.577 4.505.06 8.944.84 13.412 1.286.048 0 .089.006.137.012 3.796.131 7.593-.399 11.395-.423 1.737-.113 3.058.316 2.6 2.351-.851 3.583-1.297 7.274-2.023 10.892-.006.03-.012.066-.024.096-.839 3.16-1.41 6.362-1.458 9.648-.148 2.029.232 4.404-.755 6.231l-.048.066v.006Zm-382.616 43.035c-3.002-.638-5.707-2.105-8.446-3.395-1.8221-.792-3.6349-1.612-5.4477-2.485-1.4675-.748-2.9974-1.573-4.0189-2.887-2.1725-3.16-3.9901-6.484-5.309-10.071-2.2588-6.177-5.1651-12.263-6.4647-18.756-.9784-4.393-1.5827-8.796-1.8368-13.266-.1871-2.493-.7626-4.978-.6187-7.476.8297-8.302 3.6496-16.287 6.9012-23.946 1.2517-2.628 2.1437-5.51 3.827-7.894.3118-.364.6906-.671 1.0839-.944 2.1293-1.415 4.2203-2.887 6.4887-4.096.9496-.513 1.8992-1.036 2.8008-1.626.5707-.369 1.127-.757 1.7073-1.108 1.4239-.882 3.1319-1.314 4.7239-1.966 1.079-.403 2.134-.892 3.223-1.256 1.899-.585 3.884 0 5.812.139 2.729.321 5.496.503 8.163 1.189 2.177.624 4.455 1.161 6.469 2.206.499.326.888.791 1.223 1.281 1.017 1.453 2.024 2.858 2.652 4.508 1.017 2.45 1.967 4.944 2.791 7.462.226.667.456 1.467.672 2.038.906 1.765 6.666 14.412 7.783 25.418.355 2.758.787 5.947.806 9.122-.964 8.421-3.587 16.54-5.486 24.78-1.185 4.599-3.242 8.905-4.916 13.337-.854 1.918-1.352 4.033-2.398 5.865-.59.911-1.611 1.333-2.614 1.64-6.234 2.034-12.967 2.763-19.514 2.192l-.072-.01.015.005Zm-3.338-82.099c-.317.359-.504.853-.638 1.328-1.117 3.386-1.866 6.815-2.676 10.306-.902 4.868-2.11 9.664-3.1509 14.493-.235 1.338-.4556 2.695-.1007 4.024.3549 1.285.8872 2.551 1.1896 3.865 1.424 5.837 3.88 11.481 6.604 16.8.892 1.434 1.808 3.237 3.659 3.506 2.748.34 5.788.225 7.898-.077 1.247-.11 1.799-.998 2.149-2.259.504-1.88.974-3.707 1.343-5.606.288-3.175.59-6.369.772-9.553.158-5.194-.13-10.388-.441-15.572-.24-2.638-.24-5.314-.676-7.923-.178-.787-.509-1.53-.849-2.259-.988-2.201-1.674-4.47-2.71-6.642-.782-1.952-1.75-3.851-3.064-5.51-.658-.974-1.799-1.281-2.916-1.084-1.871.215-3.65.7-5.343 1.434-.369.167-.729.388-.997.685l-.044.048-.009-.004Zm162.998 23.288c-.488 1.109-1.718 1.746-2.715 2.383-2.159 1.248-3.855 2.348-5.984 3.499-.929.438-1.417 1.211-.213 1.848 2.986 1.507 5.684 3.342 7.262 6.396 1.484 3.333 1.022 7.228 1.578 10.795.254 2.876.53 5.768.772 8.622.246 6.345 3.546 12.002 4.954 18.079.318 1.677.649 3.351.954 5.028.373 1.257-.178 2.527-1.62 2.553-5.395.955-10.803 1.622-16.266 2.161-.921.034-2.121.31-2.859-.331-1.54-4.982-1.039-10.651-1.934-15.828-.535-6.044-.547-12.147-1.527-18.147-1.213-6.999-1.578-7.089-8.551-7.526-2.689-.127-1.323 3.308-1.463 4.956.394 8.558 2.231 17.175 1.823 25.758-.36 1.762.938 4.956-1.726 5.139-5.675.802-11.435 1.108-17.169 1.151-1.197.097-1.909-.671-1.807-1.903-.089-10.605.11-21.209.568-31.801.534-20.543.691-41.2.064-61.738-.089-1.138.53-1.767 1.662-1.864 2.8-.361 5.62-.625 8.441-.765 7.011-.098 14.107-.348 21.068.37 4.602 1.044 8.835 3.542 13.021 5.559 5.709 3.151 3.741 13.191 4.271 18.78.225 5.602-.751 11.462-2.583 16.78l-.021.051v-.005Zm-11.605-29.015c-.696-.904-2.066-1.117-3.117-1.469-2.096-.646-4.17-.221-6.278.352-1.111.285-2.244.586-3.346.888-.552.153-1.137.369-1.46.858-.216.318-.326.734-.377 1.159-.17 1.593-.297 3.283-.365 4.901-.11 2.676-.564 5.283-.963 7.925-.352 2.518-.564 5.058-.801 7.585-.17 1.448.407 1.898 1.807 1.448 4.53-1.359 8.962-3.266 12.843-6.005 1.493-1.168 1.633-3.287 1.989-5.003.386-2.926.344-5.907.378-8.838-.077-1.223.178-2.603-.284-3.754l-.026-.047Zm153.142 63.173c1.378 1.051 3.434.512 5.082.73 6.115.352 12.261-.872 18.344-.628 1.72.508.971 4.369 1.055 5.843.093 3.523-.115 7.046.066 10.568.08 4.596 2.495 9.806.528 14.157-.771.686-2.034.397-3 .419-9.447-.107-18.774-1.407-28.172-2.249-4.733.29-9.425 1.278-14.131 1.822-.713.106-1.422.111-1.719-.343-.714-9.771 1.099-19.778 1.081-29.633.908-6.622-.004-13.32.536-19.969.833-8.159 3.58-16.357 2.118-24.592-.452-2.507-.084-5.05-.15-7.579-.293-2.815-.532-5.62-.652-8.453-.527-7.045.067-14.121-.306-21.162-.137-1.033.457-1.897 1.52-1.986 2.415-.312 4.777-.922 7.187-.913 3.776.316 7.617.111 11.379.574 1.019.063 1.812.646 1.675 1.755-.793 7.481-1.294 15.003-2.246 22.476-1.051 13.467-3.031 26.858-2.393 40.379.412 4.382 1.351 8.715 1.626 13.119.346 1.817-.266 3.968.532 5.629l.035.041.005-.005Zm-112.554-17.363c-5.703 1.002-12.402 2.264-17.941 3.276-.811.139-.629.978-.744 1.697-.407 3.204-.355 6.369 1.07 9.319 1.122 2.705 2.172 5.486 3.021 8.306.873 2.7 1.285 5.53 2.441 8.134 2.168 4.148 4.503 8.22 6.661 12.363 1.012 1.559 1.478 1.64 3.218 1.626 5.894.11 20.728-.326 24.454-.408 2.796-.201 8.129-2.891 10.283-4.786 2.066-1.932 3.491-4.474 5.04-6.81.882-1.343 1.813-2.666 2.537-4.105 1.439-2.652 1.261-5.712 1.285-8.632.086-5.693.13-11.395-.014-17.078-.182-5.866 0-12.167-2.038-17.721-6.83-3.669-17.165-8.522-25.318-12.584-3.304-1.607-5.98-2.887-7.26-3.463-2.374-1.165-7.242-2.748-7.491-5.899-.072-2.047-2.537-12.632.139-14.382 2.143-1.127 10.056-2.739 13.174-2.216.988.518 1.573 3.813 1.937 7.328.197 1.079-.086 2.719 1.18 3.031 5.165 1.65 16.781 1.87 23.317 1.818.485 0 .868-.394.873-.878.038-4.402-.321-18.953-.868-22.363-.01-.614-.791-1.103-1.405-1.386-1.329-.638-2.863-.983-4.249-1.443-2.12-.71-4.326-1.593-6.527-2.178-9.534-2.196-19.956-2.973-29.394-.115-4.124 1.103-8.901 2.504-11.788 5.832-3.688 4.465-3.074 21.135-3.285 28.871.024 4.508.158 8.205.302 9.793.101 1.156.412 1.851 1.141 3.434 1.924 3.736 5.041 8.843 8.34 11.62 4.072 2.216 14.177 4.858 22.109 7.63 4.873 1.655 9.011 2.542 11.759 6.35.696 1.261.667 2.714.816 4.172.038 1.324.287 2.801.096 3.918-.59 1.597-2.005 4.705-4.321 4.796-3.329.12-12.081-.403-14.656-3.376-2.389-3.674-2.955-9.29-4.312-13.337-.149-.451-.609-.715-1.074-.629l-2.513.475h.005Zm-148.593-71.07c1.575-1.1 5.839.885 8.142.972.165.005.329.02.493.051 2.842.568 5.756.573 8.578 1.217 2.781.665 5.608 1.08 8.455 1.341 2.053.01 3.664.972 3.243 3.156-.026.123-.046.245-.051.368-.898 11.561-.139 23.214-1.001 34.785 0 .061-.01.122-.02.179-1.668 12.149-2.335 24.472-2.242 36.718.036 2.624.574 5.32 1.631 7.698 1.714 4.077 9.635 8.804 13.93 8.896 5.197-.276 6.608-13.218 6.654-13.438.272-3.678-.031-5.438-1.134-13.781-1.637-12.415-2.529-24.922-4.356-37.322-.58-4.839-.467-9.734-1.349-14.558-.323-1.412.636-2.44 1.996-2.65 3.945-1.018 7.957-2.02 11.897-3.043 2.114-.609 5.275-1.837 5.818 1.33 2.894 11.775 2.171 24.17 3.433 36.17.005.067.01.128.015.195.287 7.77-.513 15.581-.549 23.341 0 .164.01.323.036.486 4.176 26.012 3.027 15.75-6.783 39.373-.066.159-.148.312-.241.455-1.534 2.364-2.934 5.234-5.33 6.758-.339.215-.719.353-1.114.409-5.612.798-11.389.241-17.038.834-5.285.731-9.764-2.527-13.386-5.985-.051-.051-.107-.097-.164-.143-7.537-6.072-14.212-12.149-18.331-21.122-1.319-2.435-1.109-5.289-1.314-7.964-.236-3.254-.328-6.527-.215-9.791-.082-7.197-.308-14.385-.149-21.613-.046-13.785.215-27.505.128-41.275.185-3.955-1.262-8.252.277-12.006l.041-.041Z"></path><path fill="#FFF600" d="M40.6908 197.809c.4424 2.259.0329 4.618.0395 6.905-.3697 9.409-.264 18.851-.3697 28.267.5877 7.447 1.1424 14.9 1.215 22.374.2443 3.125 4.0412 1.942 6.1741 2.041 7.7854-.145 15.5113-1.216 23.2042-2.233 2.265-.172 2.648-1.738 2.4829-3.733-.0792-4.527-.1849-9.053-.2245-13.572-.1585-9.185.6603-18.409-1.1226-27.488-1.0103-8.035-3.0309-16.004-3.546-24.105.449-3.892 2.5291-7.401 3.4404-11.187 1.6574-5.669 2.6809-11.51 4.3648-17.166 1.3867-4.117 3.196-8.042 4.9393-12.026 3.0904-6.614 4.9789-13.638 7.5014-20.491.5547-2.021 1.7829-4.413 1.2348-6.475-.4754-.965-1.8093-.905-3.0507-1.018-2.7404-.165-5.4676-.581-8.1023-1.361-1.3669-.442-2.9584-.779-4.0677.39-2.6876 3.383-5.6459 6.654-7.825 10.367-2.9715 8.795-4.6422 17.98-7.6137 26.761-.7264 1.613-1.8621.126-2.4102-.812-4.8468-7.797-9.9578-15.429-15.049-23.054-4.8337-9.271-9.8919-18.409-15.8613-26.993-1.2018-1.922-3.2753-.74-4.9393-.079-4.0875 1.355-7.5939 3.925-11.58233 5.57-11.36438 2.941-11.19265-1.182-6.54388 14.147 1.15558 3.621 3.12997 6.912 4.67515 10.368 2.44326 5.88 4.77416 11.814 7.71926 17.47 4.7016 11.121 9.9711 21.944 15.7622 32.536 2.5291 5.234 7.3628 9.125 9.5287 14.504l.0265.093Z"></path></svg> 